<?xml version="1.0" encoding="UTF-8" standalone="no"?>
<svg width="80px" height="94px" viewBox="0 0 80 94" version="1.1" xmlns="http://www.w3.org/2000/svg" xmlns:xlink="http://www.w3.org/1999/xlink">
    <defs></defs>
    <g stroke="none" stroke-width="1" fill="none" fill-rule="evenodd">
        <g>
            <g transform="translate(1.000000, 0.000000)">
                <path d="M72.5522361,24.3063518 C61.4571749,15.2465541 28.2948389,-0.150353723 17.3234966,9.05842948 C6.35171863,18.2663414 -3.79366914,51.2208819 2.07557426,64.287169 C3.39509762,67.225058 6.33211528,70.0383567 10.2188064,72.5397443 C8.0484976,85.607774 -4.36129506,108.924871 24.2670036,80.2974439 C24.7231082,79.840468 25.4344921,79.7376593 26.0639775,79.5394476 C38.1078409,83.1438505 49.7130249,90.2907968 58.8612555,85.8996461 C71.7746365,79.7010664 86.2619488,35.5007367 72.5522361,24.3063518" fill="#D1DC54"></path>
                <path d="M72.5522361,24.3063518 C69.7493925,5.4858276 25.4933021,-5.96383647 14.5215242,3.24363984 C3.55018191,12.452423 -3.79366914,51.2208819 2.07557426,64.287169 C3.39509762,67.225058 6.33211528,70.0383567 10.2188064,72.5397443 C-3.53316238,89.9000366 -1.36285357,94.4497567 24.2670036,80.2974439 C24.8320158,79.9855328 25.4344921,79.7376593 26.0639775,79.5394476 C38.1078409,83.1438505 51.2643034,83.9253708 57.3043138,79.5342201 C68.8894588,71.1117491 74.6615567,38.473476 72.5522361,24.3063518" fill="#009F96"></path>
                <path d="M72.5522361,24.3063518 C66.9962107,11.1037125 28.2948389,-0.150353723 17.3234966,9.05842948 C6.35171863,18.2663414 -3.79366914,51.2208819 2.07557426,64.287169 C3.39509762,67.225058 6.33211528,70.0383567 10.2188064,72.5397443 C8.0484976,85.607774 -1.36285357,94.4497567 24.2670036,80.2974439 C24.8320158,79.9855328 25.4344921,79.7376593 26.0639775,79.5394476 C38.1078409,83.1438505 51.2643034,83.9253708 57.3043138,79.5342201 C68.8894588,71.1117491 78.1073903,37.5089911 72.5522361,24.3063518" fill="#6CB964"></path>
            </g>
        </g>
    </g>
</svg>