<?xml version="1.0" encoding="UTF-8" standalone="no"?>
<svg width="100px" height="66px" viewBox="0 0 100 66" version="1.1" xmlns="http://www.w3.org/2000/svg" xmlns:xlink="http://www.w3.org/1999/xlink">
    <defs></defs>
    <g stroke="none" stroke-width="1" fill="none" fill-rule="evenodd">
        <g>
            <g transform="translate(0.000000, 0.000000)">
                <path d="M-4.19220214e-13,66.0638932 L100,66.0638932 L100,0.063893218 L-4.19220214e-13,0.063893218 L-4.19220214e-13,66.0638932 Z" fill="#E12625"></path>
                <path d="M57.4765054,15.8620747 L57.4765054,16.310994 C57.4392807,18.3572438 58.7321461,19.3817577 61.3501012,19.3817577 C63.9213865,19.3245316 65.2186967,18.2050113 65.2431428,16.0165296 C65.2431428,15.5076063 65.1736936,15.0775771 65.0314617,14.7264422 C64.8953414,14.3725294 64.7119957,14.0847321 64.4808689,13.8536053 C64.2530757,13.6135891 63.9941692,13.4141311 63.7030384,13.2624542 C63.4246862,13.1135552 63.1207767,12.993547 62.7918656,12.8985406 C62.4885117,12.7879776 62.1918249,12.6896376 61.9006941,12.6012982 C61.6034517,12.5218484 61.3434341,12.4340647 61.1200856,12.3329467 C60.8917368,12.2473854 60.7050575,12.1268217 60.5633812,11.9723667 C60.4022592,11.8173562 60.3222538,11.6340105 60.3222538,11.4251074 C60.3105863,11.1339766 60.388925,10.9000719 60.5533806,10.7200597 C60.7178361,10.5517149 60.9995219,10.4700427 61.4073273,10.4700427 C61.7490171,10.4700427 62.0140351,10.5456034 62.2007144,10.7006139 C62.3779486,10.8617359 62.46351,11.1656454 62.46351,11.6084532 L62.46351,11.8045776 L65.1136895,11.8045776 L65.1136895,11.4628878 C65.1264682,10.6911688 64.8703397,10.0239014 64.3447486,9.45830751 C64.0697299,9.17995532 63.6997048,8.96438516 63.2346733,8.80993025 C63.1179988,8.77159432 62.9952127,8.73714754 62.8585367,8.69881161 C62.720194,8.67380991 62.574073,8.65491975 62.4285076,8.6421411 C62.2773863,8.61380585 62.117931,8.59158212 61.9606981,8.57880348 L61.4289954,8.57880348 C58.8932681,8.57880348 57.6059586,9.60998446 57.5615112,11.6745688 C57.5615112,12.7151948 57.8748657,13.4613565 58.4976857,13.9197209 C59.1143942,14.3786409 60.0505687,14.8020029 61.3062093,15.1914737 C61.7740188,15.3459286 62.0907069,15.5264964 62.2512734,15.738733 C62.4068395,15.9659707 62.4824001,16.200431 62.4824001,16.4437808 C62.4824001,16.7343561 62.3912829,16.9810394 62.204048,17.1832754 C62.0023676,17.3888448 61.7140148,17.4905184 61.3345446,17.4905184 C60.8317328,17.4905184 60.5028216,17.3321743 60.3483667,17.0193754 C60.1989121,16.6965757 60.1261294,16.310994 60.1261294,15.8620747 L57.4765054,15.8620747 Z M48.6947993,15.8620747 L48.6947993,16.310994 C48.6564634,18.3572438 49.9498843,19.3817577 52.5689507,19.3817577 C55.1396804,19.3245316 56.4364349,18.2050113 56.4614366,16.0165296 C56.4614366,15.5076063 56.3919875,15.0775771 56.2486444,14.7264422 C56.1136353,14.3725294 55.9302895,14.0847321 55.6997184,13.8536053 C55.4719252,13.6135891 55.2124631,13.4141311 54.9207767,13.2624542 C54.6424245,13.1135552 54.3396262,12.993547 54.0112706,12.8985406 C53.70625,12.7879776 53.4095632,12.6896376 53.118988,12.6012982 C52.8217456,12.5218484 52.561728,12.4340647 52.3372683,12.3329467 C52.1100307,12.2473854 51.9233514,12.1268217 51.7811195,11.9723667 C51.6199975,11.8173562 51.5405477,11.6340105 51.5405477,11.4251074 C51.527769,11.1339766 51.6077745,10.9000719 51.7716744,10.7200597 C51.93613,10.5517149 52.2178158,10.4700427 52.6256212,10.4700427 C52.9667554,10.4700427 53.2328846,10.5456034 53.4190083,10.7006139 C53.5967981,10.8617359 53.6812483,11.1656454 53.6812483,11.6084532 L53.6812483,11.8045776 L56.3319834,11.8045776 L56.3319834,11.4628878 C56.3442065,10.6911688 56.0875224,10.0239014 55.5630424,9.45830751 C55.2880238,9.17995532 54.9185543,8.96438516 54.4535228,8.80993025 C54.3368482,8.77159432 54.2123954,8.73714754 54.0768306,8.69881161 C53.9373767,8.67380991 53.7929225,8.65491975 53.6468015,8.6421411 C53.4951246,8.61380585 53.3373361,8.59158212 53.1784364,8.57880348 L52.6478449,8.57880348 C50.111562,8.57880348 48.8242525,9.60998446 48.7803607,11.6745688 C48.7803607,12.7151948 49.092604,13.4613565 49.7159796,13.9197209 C50.3326881,14.3786409 51.2688626,14.8020029 52.5239476,15.1914737 C52.9923127,15.3459286 53.3084452,15.5264964 53.4695673,15.738733 C53.6245778,15.9659707 53.700694,16.200431 53.700694,16.4437808 C53.700694,16.7343561 53.6084656,16.9810394 53.4223418,17.1832754 C53.2195503,17.3888448 52.9311975,17.4905184 52.5528385,17.4905184 C52.0500266,17.4905184 51.7216711,17.3321743 51.566105,17.0193754 C51.417206,16.6965757 51.3444233,16.310994 51.3444233,15.8620747 L48.6947993,15.8620747 Z M42.4415978,12.6996382 C42.4293748,11.9879234 42.5088246,11.440664 42.6827253,11.0645275 C42.8344022,10.6689451 43.163869,10.4700427 43.6627917,10.4700427 C44.1083774,10.4700427 44.406731,10.6561665 44.5456293,11.0267471 C44.6817496,11.4056617 44.7473096,11.9623661 44.7473096,12.6996382 L42.4415978,12.6996382 Z M47.6186153,14.4797589 C47.6186153,13.5974768 47.5936136,12.7946447 47.5463882,12.0701511 C47.4608268,11.3556583 47.2930377,10.7383942 47.0435763,10.2166922 C46.7813363,9.68887869 46.3824204,9.27440616 45.8451618,8.9771638 C45.291791,8.71159025 44.5422957,8.57880348 43.5966761,8.57880348 C41.9899006,8.59158212 40.889826,9.06605871 40.2981193,10.0050112 C39.7258583,10.9317407 39.4508396,12.1334888 39.4763969,13.6102555 C39.4630627,14.3691958 39.503621,15.0992453 39.5930715,15.7954035 C39.6786329,16.4754496 39.8519779,17.0860466 40.1147735,17.6294167 C40.3903478,18.1611194 40.8009311,18.5844814 41.3481904,18.9011695 C41.8982277,19.2073014 42.6477229,19.368979 43.5966761,19.3817577 C46.1329591,19.3817577 47.4419366,18.1227835 47.527498,15.6026127 L44.767311,15.6026127 C44.7417537,16.2415449 44.6434137,16.7121323 44.4689574,17.0160418 C44.2956124,17.3321743 44.0078151,17.4905184 43.6066768,17.4905184 C42.7932883,17.4905184 42.4043731,16.6965757 42.4415978,15.1120239 L42.4415978,14.4797589 L47.6186153,14.4797589 Z M38.6502298,12.7090833 C38.6630085,11.4595542 38.394657,10.4600421 37.8435085,9.71443598 C37.2690252,8.97105228 36.1995082,8.59158212 34.6344022,8.57880348 C33.0215151,8.59158212 31.918107,9.06605871 31.3230667,10.0050112 C30.7485834,10.9317407 30.4724535,12.1334888 30.4974552,13.6102555 C30.4852322,14.3691958 30.5263461,15.0992453 30.618019,15.7954035 C30.7035803,16.4754496 30.877481,17.0860466 31.139721,17.6294167 C31.4147396,18.1611194 31.8292121,18.5844814 32.3792494,18.9011695 C32.9292867,19.2073014 33.6787819,19.368979 34.6344022,19.3817577 C37.3479194,19.4323166 38.6891214,17.9488828 38.6502298,14.9325673 L35.8894872,14.9325673 C35.8894872,15.8270724 35.8017035,16.4565595 35.6272472,16.8226954 C35.4600137,17.193276 35.1433256,17.3793998 34.6782941,17.3793998 C34.1599256,17.3793998 33.8282365,17.0982696 33.685449,16.5326757 C33.5276605,15.9881944 33.4509887,15.1375812 33.4643229,13.9836141 C33.4509887,12.9052077 33.5276605,12.0701511 33.685449,11.4723329 C33.8282365,10.8906268 34.1599256,10.59394 34.6782941,10.5806058 C35.497794,10.5617156 35.9022659,11.2734305 35.8894872,12.7090833 L38.6502298,12.7090833 Z M29.5235004,12.7090833 C29.536279,11.4595542 29.2679275,10.4600421 28.7178902,9.71443598 C28.1417401,8.97105228 27.0727788,8.59158212 25.5076727,8.57880348 C23.8947857,8.59158212 22.7913776,9.06605871 22.1963372,10.0050112 C21.6207427,10.9317407 21.3457241,12.1334888 21.3712813,13.6102555 C21.3590583,14.3691958 21.3996166,15.0992453 21.4912895,15.7954035 C21.5768508,16.4754496 21.7501959,17.0860466 22.0129915,17.6294167 C22.2885657,18.1611194 22.7024826,18.5844814 23.2525199,18.9011695 C23.8031128,19.2073014 24.552608,19.368979 25.5076727,19.3817577 C28.2211899,19.4323166 29.5618363,17.9488828 29.5235004,14.9325673 L26.7627577,14.9325673 C26.7627577,15.8270724 26.674974,16.4565595 26.5010734,16.8226954 C26.3332842,17.193276 26.0165961,17.3793998 25.5521202,17.3793998 C25.0331961,17.3793998 24.701507,17.0982696 24.5587195,16.5326757 C24.4009311,15.9881944 24.3253704,15.1375812 24.3375934,13.9836141 C24.3253704,12.9052077 24.4009311,12.0701511 24.5587195,11.4723329 C24.701507,10.8906268 25.0331961,10.59394 25.5521202,10.5806058 C26.370509,10.5617156 26.776092,11.2734305 26.7627577,12.7090833 L29.5235004,12.7090833 Z M14.7452768,15.9504141 C14.7452768,15.4064883 14.9108436,15.0270182 15.2364212,14.80867 C15.3786531,14.71033 15.5814446,14.6158792 15.843129,14.5214283 C16.1064802,14.435867 16.4820612,14.2769673 16.9687608,14.0497297 C16.9565378,14.4319778 16.9504263,15.0364632 16.9504263,15.8587412 C16.9504263,16.3648866 16.8243066,16.7254666 16.5731785,16.933814 C16.3237171,17.1516065 16.0242524,17.2593916 15.6692283,17.2593916 C15.0530755,17.2471686 14.7452768,16.8110279 14.7452768,15.9504141 L14.7452768,15.9504141 Z M14.8030585,11.9968128 C14.8152816,11.5356705 14.9075101,11.1750905 15.0814107,10.9195176 C15.2491999,10.6945024 15.5431087,10.5806058 15.9664707,10.5806058 C16.6465168,10.59394 16.9820951,10.9411858 16.9687608,11.6273434 C16.9687608,11.9912569 16.9093124,12.2507189 16.7859707,12.4051738 C16.6431832,12.5568508 16.3364958,12.6896376 15.8686863,12.8002006 C15.4453243,12.9018742 14.9764036,13.0157708 14.4735918,13.145224 C13.968002,13.2691213 13.5157491,13.4302433 13.1235003,13.6352572 C12.3012224,14.1164009 11.8873054,14.9886822 11.8739712,16.2537679 C11.9000841,18.3627997 12.8068122,19.4067593 14.6008226,19.3817577 C15.1319697,19.3817577 15.6131134,19.2545268 16.042587,19.0017319 C16.4692825,18.7494926 16.7893042,18.3916906 17.0037632,17.9361041 L17.0420991,17.9361041 C17.0543222,18.3444651 17.1115483,18.7367139 17.2121106,19.1128505 L20.0778604,19.1128505 C19.9222943,18.8722787 19.8245099,18.5367004 19.7839516,18.1038933 C19.7367261,17.6899764 19.7172804,17.2877269 19.7295034,16.8927001 L19.7295034,11.6273434 C19.7556163,9.55942547 18.5533126,8.54046755 16.1281483,8.57880348 C14.9202887,8.56658043 13.977447,8.78770652 13.297401,9.23995938 C12.936821,9.47997565 12.6618023,9.82499902 12.4756786,10.2705848 C12.2851102,10.7228376 12.1784363,11.2984322 12.1523234,11.9968128 L14.8030585,11.9968128 Z" fill="#FEFEFE"></path>
                <path d="M77.2065644,57.0454207 C79.4206033,57.0454207 81.2423934,56.6770624 82.6624897,55.9381234 C84.0425832,55.2647445 85.1104333,54.3019014 85.8632621,53.0507055 C87.2272434,50.5144226 87.877843,47.2492014 87.8133942,43.2689317 C87.8133942,41.279908 87.7172766,39.4581179 87.517263,37.7974498 C87.2678017,36.1523384 86.7783241,34.7166856 86.0482746,33.4888246 C85.3582279,32.2692975 84.2998228,31.3220111 82.8708371,30.6486321 C81.4835209,29.974142 79.5895037,29.6374525 77.2148983,29.6374525 C72.8979392,29.7174579 70.0260779,31.0336582 68.6059817,33.5849422 C67.209776,36.1284479 66.5436198,39.402003 66.607513,43.4139415 C66.607513,45.3390719 66.7364106,47.1364159 67.000873,48.7976396 C67.2497787,50.4421955 67.7236997,51.8711812 68.4209692,53.0984866 C69.1754647,54.317458 70.2505376,55.2647445 71.6461877,55.9381234 C73.0335039,56.6770624 74.8875184,57.0454207 77.2065644,57.0454207 L77.2065644,57.0454207 Z M80.2878843,43.3500483 C80.2878843,46.4863719 80.1034274,48.7093003 79.7261796,50.0332789 C79.3250413,51.3572575 78.5060969,51.998412 77.2626794,51.9661876 C76.0753767,51.998412 75.2731001,51.3405897 74.8480713,49.9843867 C74.3741503,48.6609637 74.1335785,46.4385909 74.1335785,43.3089344 C74.1335785,40.1398308 74.3741503,37.9013458 74.8480713,36.5779228 C75.0808649,35.9039882 75.3931082,35.4067323 75.8109143,35.0933777 C76.2037187,34.844472 76.6848624,34.7166856 77.2626794,34.7166856 C78.5060969,34.6683489 79.3250413,35.2939469 79.7261796,36.5779228 C80.1034274,37.9013458 80.2878843,40.1564986 80.2878843,43.3500483 L80.2878843,43.3500483 Z M54.1794487,56.3631522 L61.7049586,56.3631522 L61.7049586,35.678973 L65.203529,35.678973 L65.203529,30.319721 L61.7049586,30.319721 L61.7049586,28.6501634 C61.6732898,27.9045573 61.8249667,27.3745214 62.1622118,27.0539441 C62.4839002,26.805594 63.1333887,26.677252 64.1290117,26.677252 L65.203529,26.677252 L65.203529,21.4535647 C64.3045792,21.3652254 63.1972819,21.3168888 61.8577467,21.3168888 C58.8492095,21.3168888 56.8196276,21.8469247 55.7678897,22.9136636 C54.676149,23.9970704 54.1477799,25.7460778 54.1794487,28.1534631 L54.1794487,30.319721 L51.0581261,30.319721 L51.0581261,35.678973 L54.1794487,35.678973 L54.1794487,56.3631522 Z M24.9819149,56.3631522 L31.9868339,56.3631522 L31.9868339,32.6621019 L32.0751732,32.6621019 L38.9267486,56.3631522 L47.7767927,56.3631522 L47.7767927,21.9991572 L40.491299,21.9991572 L40.491299,44.3367818 L40.4029597,44.3367818 L33.9841915,21.9991572 L24.9819149,21.9991572 L24.9819149,56.3631522 Z M12.1288218,56.3631522 L19.4137598,56.3631522 L19.4137598,49.1665535 L12.1288218,49.1665535 L12.1288218,56.3631522 Z M11.9443648,33.2565866 L12.8744279,46.5430424 L18.6275954,46.5430424 L19.4698747,33.2565866 L19.4698747,21.9991572 L11.9443648,21.9991572 L11.9443648,33.2565866 Z" fill="#FEFEFE"></path>
            </g>
        </g>
    </g>
</svg>